{"asset":{"version":"2.0","generator":"babylon.js glTF exporter for 3dsmax 2021 v20220210.4"},"scene":0,"scenes":[{"nodes":[0]}],"nodes":[{"mesh":0,"name":"TV"}],"meshes":[{"primitives":[{"attributes":{"POSITION":1,"NORMAL":2,"TEXCOORD_0":3},"indices":0,"material":0},{"attributes":{"POSITION":5,"NORMAL":6,"TEXCOORD_0":7},"indices":4,"material":1}],"name":"TV"}],"accessors":[{"bufferView":0,"componentType":5123,"count":8646,"type":"SCALAR","name":"accessorIndices"},{"bufferView":1,"componentType":5126,"count":2606,"max":[0.0128497574,0.0324138775,0.00658233324],"min":[-0.0128497574,0.0,-0.0076326495],"type":"VEC3","name":"accessorPositions"},{"bufferView":1,"byteOffset":31272,"componentType":5126,"count":2606,"type":"VEC3","name":"accessorNormals"},{"bufferView":2,"componentType":5126,"count":2606,"type":"VEC2","name":"accessorUVs"},{"bufferView":0,"byteOffset":17292,"componentType":5123,"count":1332,"type":"SCALAR","name":"accessorIndices"},{"bufferView":1,"byteOffset":62544,"componentType":5126,"count":259,"max":[0.00631776731,0.0302240942,0.006347282],"min":[-0.0105844336,0.0170793161,0.005227422],"type":"VEC3","name":"accessorPositions"},{"bufferView":1,"byteOffset":65652,"componentType":5126,"count":259,"type":"VEC3","name":"accessorNormals"},{"bufferView":2,"byteOffset":20848,"componentType":5126,"count":259,"type":"VEC2","name":"accessorUVs"}],"bufferViews":[{"buffer":0,"byteLength":19956,"name":"bufferViewScalar"},{"buffer":0,"byteOffset":19956,"byteLength":68760,"byteStride":12,"name":"bufferViewFloatVec3"},{"buffer":0,"byteOffset":88716,"byteLength":22920,"byteStride":8,"name":"bufferViewFloatVec2"}],"buffers":[{"uri":"TV.bin","byteLength":111636}],"materials":[{"pbrMetallicRoughness":{"baseColorTexture":{"index":0},"metallicFactor":0.0,"roughnessFactor":2.25},"doubleSided":true,"name":"TV_Main"},{"pbrMetallicRoughness":{"baseColorTexture":{"index":1},"metallicFactor":0.0,"roughnessFactor":2.25},"doubleSided":true,"name":"TV_Screen"}],"textures":[{"sampler":0,"source":0,"name":"retrotv0319_Main_BaseColor.png"},{"sampler":0,"source":1,"name":"retrotv0319_Screen_BaseColor.png"}],"images":[{"uri":"retrotv0319_Main_BaseColor.png"},{"uri":"retrotv0319_Screen_BaseColor.png"}],"samplers":[{"magFilter":9729,"minFilter":9987}]}